<svg version="1" xmlns="http://www.w3.org/2000/svg" width="682.667" height="682.667" viewBox="0 0 512.000000 512.000000"><path d="M60.9 103.7c0 .5-.2 1.7-.4 2.7-.2 1.1-.5 3.6-.7 5.5-.3 4.1-1.8 3.3 16.3 8.1 17.3 4.7 18.5 6.1 20.5 25.5 2.7 26.3 2.6 205.1-.1 220.8-.2 1.2-.7 4.4-1 7.2-1.1 9.6-5.1 12.5-25 17.6l-13.9 3.6.2 4.4c.6 8.3-.3 7.9 14.5 7.4 13.4-.5 69.2-.6 93.6-.2 12.8.2 13.4.1 13.6-1.8 1-10.3 1.1-9.8-1.5-10.6-1.4-.4-6.7-1.7-11.8-2.9-14.8-3.4-19.8-6.2-22.1-12.1-1.4-3.9-2.8-19.6-3.6-42.4-.7-20.3-1-74.3-.4-74.9 2.7-2.7 157.7-2.7 162.1 0 .7.5.2 63.8-.7 84.4-1.1 25.1-2 31.4-4.6 35.1-1.1 1.6-3.8 3.8-5.8 4.9-3.6 1.8-19.3 6.1-27.4 7.6-3.4.6-3.7.9-3.3 3.3.2 1.4.5 4.3.5 6.4l.1 3.7 14.8-.5c18.2-.6 77.4-.6 94 0 6.7.3 12.2.2 12.2-.2.1-.5.3-3.3.6-6.4l.6-5.6-3.8-.8c-16-3.3-25.4-6.3-28.8-9.3-5.2-4.8-6-11.5-7.3-61.7-1.3-55.7-.7-155.1 1.2-173 1.9-19 1.7-17.9 4.4-21.6 2.9-3.9 7.8-6 21.9-9.5l11.4-2.8-.6-3.5c-.3-2-.6-4.8-.6-6.4V103l-14.8.6c-17.6.7-67 .7-87.2 0l-14.6-.5-.2 3.7c-.2 2-.5 4.9-.7 6.4-.5 2.5-.2 2.7 5.2 3.8 10.4 2.2 21.3 5.8 24.8 8.1 3.8 2.6 5.3 5.5 5.9 10.9 2.3 19.9 2.6 27.8 3.1 67.2l.3 33.8h-2.1c-1.2.1-8 .4-15.2.8-30.6 1.7-143.4.6-145.3-1.3-.5-.5-.2-46.6.3-61.5 1.4-39.1 2.6-45.9 8.6-50.3 2.3-1.7 15.6-6 21.9-7.2 8.9-1.6 8.6-1.2 7.4-9.9l-.7-4.6-13.6.6c-17.8.7-68.6.7-87.3 0-8.2-.4-14.8-.3-14.9.1zM428.3 363.1c-6.6 1.2-12.5 5.6-16 12.2-1.2 2.2-1.8 5.5-1.8 10.8 0 6.7.3 8.1 3 12.5 1.9 3 4.9 6 7.9 7.8 4.1 2.6 5.8 3 11.5 3 10.1.1 17.3-4.7 21.5-14.1 2.6-5.9 1.9-16.7-1.5-21.4-6.1-8.9-14.5-12.5-24.6-10.8z"/></svg>